HIERARCHY
ROOT Hips
{
  OFFSET -7.40212 95.167 140.741
  CHANNELS 6 Xposition Yposition Zposition Zrotation Xrotation Yrotation
  JOINT RightUpLeg
  {
    OFFSET -8.9458 -8.66707 0.101652
    CHANNELS 3 Zrotation Xrotation Yrotation
    JOINT RightLeg
    {
      OFFSET 0 -44.4227 1.3727
      CHANNELS 3 Zrotation Xrotation Yrotation
      JOINT RightFoot
      {
        OFFSET 0.253549 -42.0924 -1.46059
        CHANNELS 3 Zrotation Xrotation Yrotation
        JOINT RightToes
        {
          OFFSET 0.04 -4.41509 8.4991
          CHANNELS 3 Zrotation Xrotation Yrotation
          End Site
          {
            OFFSET -0.08 -0.137448 9.77979
          }
        }
      }
    }
  }
  JOINT Spine
  {
    OFFSET 0 11.8905 0
    CHANNELS 3 Zrotation Xrotation Yrotation
    JOINT Spine1
    {
      OFFSET 0 25.6574 0.127663
      CHANNELS 3 Zrotation Xrotation Yrotation
      JOINT HEad
      {
        OFFSET 0 8.73416 0.011341
        CHANNELS 3 Zrotation Xrotation Yrotation
        End Site
        {
          OFFSET -0.29 12.7742 2.51395
        }
      }
      JOINT LeftShoulder1
      {
        OFFSET 8.99 -0.362252 -0.22
        CHANNELS 3 Zrotation Xrotation Yrotation
        JOINT LeftArm
        {
          OFFSET 10.2827 -0.00338 0.322123
          CHANNELS 3 Zrotation Xrotation Yrotation
          JOINT LeftForeArm
          {
            OFFSET 32.7669 0.099144 -1.42434
            CHANNELS 3 Zrotation Xrotation Yrotation
            JOINT LeftHand
            {
              OFFSET 27.5643 0.085362 1.02216
              CHANNELS 3 Zrotation Xrotation Yrotation
              End Site
              {
                OFFSET 16.7443 -0.6 1.50291
              }
            }
          }
        }
      }
      JOINT RightShoulder
      {
        OFFSET -8.99 -0.362252 -0.22
        CHANNELS 3 Zrotation Xrotation Yrotation
        JOINT RightArm
        {
          OFFSET -10.2827 -0.00338 0.322123
          CHANNELS 3 Zrotation Xrotation Yrotation
          JOINT RightForeArm
          {
            OFFSET -32.8971 0.099144 -1.42434
            CHANNELS 3 Zrotation Xrotation Yrotation
            JOINT RightHand
            {
              OFFSET -27.4921 0.085362 1.02216
              CHANNELS 3 Zrotation Xrotation Yrotation
              End Site
              {
                OFFSET -16.6312 -0.6 1.50291
              }
            }
          }
        }
      }
    }
  }
  JOINT LeftUpLeg
  {
    OFFSET 8.9458 -8.66707 0.101652
    CHANNELS 3 Zrotation Xrotation Yrotation
    JOINT LeftLeg
    {
      OFFSET 0 -44.4227 1.3727
      CHANNELS 3 Zrotation Xrotation Yrotation
      JOINT LeftFoot
      {
        OFFSET -0.253549 -42.0924 -1.46059
        CHANNELS 3 Zrotation Xrotation Yrotation
        JOINT LeftToes
        {
          OFFSET -0.04 -4.41509 8.4991
          CHANNELS 3 Zrotation Xrotation Yrotation
          End Site
          {
            OFFSET 0.08 -0.047448 9.77979
          }
        }
      }
    }
  }
}
MOTION
Frames:	22
Frame Time:	0.0166667
31.5789 97.1424 68.9172 -2.74297 -4.70814 -52.9763 -13.7698 -26.1803 -1.93101 2.72111 31.9242 -6.52888 22.1523 25.2437 -6.37108 -48.5161 -41.7997 -1.16592 0.150888 9.05327 -2.11121 -2.42045 17.9201 -3.85914 13.4882 -6.31498 -28.3741 1.59028e-015 7.95139e-016 -3.18055e-015 -78.2616 -18.5714 -66.3583 -3.23082 38.6869 -104.25 4.45803 9.88318 3.92243 22.2827 -0.517048 -4.49998 55.1591 -27.641 45.8587 -29.7343 9.71495 101.528 26.1534 2.49229 -34.7425 23.0681 -0.594775 -2.33122 -12.9494 20.7105 20.6596 1.89248 18.3312 -0.553178 32.3511 -36.965 14.6738 
31.7205 95.9166 70.175 -3.31795 -5.15671 -55.4139 -12.4264 -26.2764 -1.72251 0.372436 30.5521 -3.98545 23.9474 28.5435 -7.5917 -53.6261 -45.0686 -2.94227 -0.69283 9.2813 -2.01886 -2.87591 18.435 -3.7493 13.2324 -6.61511 -26.6996 -1.59028e-015 3.97569e-015 3.18055e-015 -81.049 -19.3629 -70.6633 -3.33742 40.2103 -102.599 3.92099 9.91094 4.86845 21.5647 -0.295625 -3.63766 54.3386 -23.3217 45.7714 -28.5955 7.09531 96.5833 25.6804 3.11487 -32.8088 22.502 0.312009 -3.25753 -14.5227 22.8809 25.1389 7.35099 18.4915 -1.79984 36.7214 -39.2393 18.8421 
31.7587 94.6398 71.442 -3.88987 -5.56103 -57.9241 -11.3088 -26.8048 -0.895108 -1.33694 30.3879 -3.06794 25.4758 33.2613 -9.15658 -60.2927 -48.3156 -6.34652 -1.38543 9.51412 -1.85963 -3.30812 18.9567 -3.53938 12.8034 -7.50447 -25.2008 1.59028e-015 -5.56597e-015 3.18055e-015 -83.3756 -19.8773 -74.448 -3.73066 41.2749 -101.761 3.73736 9.91667 5.1237 20.9212 -0.120077 -2.9219 55.0774 -21.6737 45.9986 -27.3971 6.2822 95.2286 24.2424 3.96087 -30.8449 21.9023 2.02026 -4.3568 -15.8383 24.0366 29.8496 11.6396 18.2431 -2.75495 41.981 -41.5376 23.7292 
31.6595 93.449 72.7126 -4.42747 -5.81394 -60.464 -10.4962 -28.1625 0.681677 -2.18855 32.1253 -3.5704 27.0356 37.9168 -10.8757 -67.0091 -50.7352 -10.4845 -1.7718 9.72496 -1.67798 -3.66746 19.4003 -3.28221 12.2723 -8.74144 -23.8358 -1.59028e-015 -4.77083e-015 3.18055e-015 -85.1964 -20.3394 -77.4691 -4.1482 41.8483 -102.001 3.86438 9.91003 4.84451 20.5348 -0.0146546 -2.47399 57.318 -22.4872 46.3955 -26.3829 7.70743 97.6351 22.0053 4.81691 -29.4 21.3419 4.33392 -5.30212 -16.79 24.1703 34.0642 14.4393 17.605 -3.30913 47.2479 -43.3827 28.5923 
31.3637 92.5077 73.9558 -4.88545 -5.89859 -62.8452 -10.1193 -30.3226 2.96745 -1.76393 35.5282 -4.81371 29.7397 41.5731 -13.0178 -71.5015 -52.1952 -13.2421 -1.9412 9.87396 -1.54402 -3.89289 19.6965 -3.13751 11.7026 -9.93889 -22.6128 3.18055e-015 -3.97569e-015 -3.18055e-015 -86.6143 -20.9635 -79.5287 -4.24404 42.0184 -103.455 4.07398 9.89847 4.40949 20.4738 0.0207011 -2.31915 60.8437 -25.1684 47.0354 -25.6405 11.1687 103.122 19.5928 5.4911 -28.7625 20.8659 6.98615 -5.83885 -17.4025 23.4406 37.1823 15.8231 16.6209 -3.47605 51.2934 -44.5671 32.2493 
30.8327 91.8919 75.143 -5.27147 -5.76557 -64.7644 -10.2553 -33.0149 5.52471 0.424366 39.8241 -6.4128 34.1615 43.9188 -15.8175 -71.5443 -52.8987 -12.4471 -1.86657 9.95096 -1.56303 -3.88513 19.8217 -3.29146 11.1511 -10.7136 -21.5557 1.59028e-015 1.98785e-015 -3.18055e-015 -87.6939 -21.8341 -80.4963 -3.79134 41.8669 -105.98 4.14681 9.89273 4.2121 20.6951 -0.00281994 -2.41768 65.2725 -28.9647 47.9715 -25.1052 15.9695 110.553 17.8654 5.85841 -28.8588 20.6176 9.49331 -5.95831 -17.7818 22.4567 38.8657 15.917 15.4537 -3.32666 53.5577 -45.2936 34.0443 
30.0391 91.6351 76.2382 -5.60863 -5.3579 -65.9168 -10.908 -35.8128 7.45762 4.28764 44.0356 -8.15012 39.7274 44.9905 -18.9829 -66.122 -52.6498 -7.19468 -1.49703 9.96674 -1.79083 -3.56044 19.7811 -3.82608 10.679 -10.8164 -20.7242 -6.62086e-032 -1.19271e-015 -3.18055e-015 -88.3131 -22.7985 -80.3425 -2.90464 41.4191 -109.006 4.00837 9.90048 4.48257 21.1257 -0.0857976 -2.76491 69.9566 -33.1545 49.0826 -24.714 21.2485 118.7 17.3244 5.88781 -29.4063 20.7771 11.474 -5.93082 -17.9419 21.6724 39.1552 14.919 14.6991 -3.01957 54.6598 -45.929 34.4462 
28.9783 91.7297 77.2116 -5.90216 -4.65946 -66.1489 -12.0356 -38.3072 7.91187 8.92221 47.4554 -9.51056 45.474 44.9563 -21.956 -57.2175 -51.0188 0.727218 -0.821387 9.93085 -2.1877 -2.91444 19.5776 -4.65375 10.3111 -10.2053 -20.23 -4.41391e-031 3.97569e-015 6.36111e-015 -88.2671 -23.5408 -79.1566 -1.98429 40.7486 -111.714 3.71034 9.91883 5.21564 21.6873 -0.232443 -3.36237 69.9269 -33.09 48.4758 -23.8024 21.3513 123.627 18.6405 5.37542 -30.5949 21.499 12.7145 -6.1803 -17.9553 21.2597 38.379 12.9927 14.9989 -2.67525 55.6951 -46.6879 34.5667 
27.6818 92.1018 78.0477 -6.1688 -3.73913 -65.5698 -13.5567 -40.2377 6.75304 13.3768 49.8472 -9.93082 50.5434 43.9257 -24.1647 -48.8849 -48.4769 7.85877 0.122484 9.85395 -2.65076 -2.04819 19.2261 -5.5569 10.026 -9.0696 -20.1385 2.09661e-031 7.55382e-015 -1.59028e-015 -87.5067 -23.8324 -77.1438 -1.3774 40.028 -113.505 3.33808 9.93741 6.17248 22.263 -0.418154 -4.09412 68.0462 -32.1445 47.1664 -22.7975 19.945 127.576 20.7025 4.57834 -32.1025 22.8911 13.0841 -6.99667 -18.1617 21.417 36.8481 10.0707 16.5225 -2.2367 57.3799 -47.5771 35.2773 
26.2314 92.5953 78.7438 -6.47143 -2.74538 -64.4886 -15.3172 -41.5274 4.6369 17.287 51.2427 -9.36287 54.2732 41.9835 -25.1571 -43.3154 -46.2079 12.5414 1.30021 9.78159 -3.08556 -1.13532 18.811 -6.28719 9.79084 -7.76845 -20.3987 -8.82781e-032 3.18055e-015 1.59028e-015 -86.1851 -23.6705 -74.6099 -1.1705 39.3916 -114.254 2.96069 9.94693 6.98318 22.6769 -0.585548 -4.73804 65.3578 -31.4085 45.7148 -21.8168 18.0154 131.143 23.154 3.57248 -33.7679 24.9725 12.4518 -8.27621 -19.03 22.5932 34.7358 6.07437 19.0918 -1.54412 59.9513 -48.5081 36.9393 
24.7018 93.0937 79.2928 -6.86576 -1.92883 -63.2418 -17.1674 -42.118 2.44446 20.5277 51.6342 -8.23732 56.214 39.4294 -24.8051 -40.2775 -44.7484 15.0652 2.48363 9.75392 -3.39015 -0.331203 18.4779 -6.67957 9.56723 -6.66959 -20.9266 3.18055e-015 6.36111e-015 -3.18055e-015 -84.5025 -23.184 -71.9189 -1.24973 38.8193 -114.214 2.63254 9.94591 7.38155 22.7268 -0.676578 -5.10137 62.3189 -31.2424 44.4463 -20.8208 15.7735 134.446 25.9969 2.35521 -35.453 27.5136 11.0035 -9.54517 -20.6517 24.7414 32.0433 1.53866 22.9625 -0.56381 63.1682 -49.3295 39.3976 
23.1413 93.5296 79.711 -7.38175 -1.45252 -61.9532 -18.9564 -41.9455 0.758353 22.8042 51.0468 -7.11083 56.1819 36.7519 -23.3558 -38.954 -43.9192 15.956 3.51347 9.80346 -3.55092 0.318217 18.3553 -6.73353 9.33059 -6.00488 -21.7111 -3.08973e-031 2.78299e-015 6.36111e-015 -82.5995 -22.5207 -69.4186 -1.41965 38.2087 -113.815 2.40962 9.93989 7.37215 22.2411 -0.657036 -5.08204 59.3426 -32.0782 43.5891 -19.8912 13.4869 137.611 29.2305 0.9557 -36.9545 30.1475 8.96562 -10.2463 -22.5161 27.6621 28.6101 -2.7246 28.5811 0.673332 65.86 -50.0314 41.3323 
21.5461 93.9035 80.0227 -7.96172 -1.38075 -60.5264 -20.6562 -40.9442 -0.290038 23.787 49.5465 -6.39462 54.2489 34.4628 -21.2668 -38.7147 -43.332 15.4838 4.22767 9.91158 -3.60185 0.834747 18.4751 -6.59417 9.12164 -5.85823 -22.8421 2.20695e-032 -3.97569e-016 3.18055e-015 -80.5804 -21.7938 -67.3818 -1.43727 37.5136 -113.488 2.34341 9.93522 7.16126 21.0872 -0.517977 -4.63273 56.5688 -34.2848 43.1158 -19.2378 11.2681 140.571 32.5811 -0.468083 -38.0414 32.4742 6.48721 -10.0871 -23.7506 31.1054 24.4042 -6.34071 35.818 2.18871 66.8138 -51.2187 40.7047 
19.8902 94.2261 80.2416 -8.50785 -1.67695 -58.7602 -22.2907 -39.085 -0.796274 23.4317 47.234 -6.3984 50.7135 32.9206 -18.9743 -38.9968 -42.5731 13.91 4.54058 10.0366 -3.58519 1.26303 18.7877 -6.42989 9.0529 -6.21047 -24.4808 -2.38542e-015 4.37326e-015 -0 -78.5371 -21.0165 -65.9885 -1.06366 36.7729 -113.501 2.44401 9.93542 7.0081 19.1965 -0.283798 -3.7693 53.7698 -37.9948 42.6566 -19.1474 8.99481 142.951 35.461 -1.64519 -38.624 34.3031 3.60454 -9.26836 -23.6858 34.6892 20.055 -9.27439 43.5838 3.93736 67.482 -53.5454 38.2576 
18.1754 94.4396 80.3696 -8.93675 -2.23603 -56.5001 -23.8459 -36.4738 -0.834687 22.0608 44.3135 -7.46444 45.9048 32.1916 -16.6737 -39.0453 -41.1939 11.7446 4.53097 10.1549 -3.53556 1.63479 19.2124 -6.32763 9.24495 -6.93999 -26.7701 -1.76556e-031 1.59028e-015 6.36111e-015 -76.4969 -20.0914 -65.3162 -0.175955 36.0208 -113.885 2.65595 9.9427 7.15062 16.6653 -0.0258754 -2.65798 50.3601 -42.9707 41.5674 -20.013 6.48531 144.143 37.3409 -2.41294 -38.9262 35.6787 0.235344 -8.30848 -22.236 37.8749 16.6659 -10.8686 50.2879 5.33182 70.9213 -56.629 37.832 
16.4337 94.4287 80.4077 -9.17311 -2.95639 -53.7507 -25.3117 -33.4016 -0.387866 20.2447 41.1648 -9.83913 40.0005 31.8481 -14.2242 -37.7831 -38.6105 9.71644 4.32058 10.2508 -3.4492 1.93193 19.6522 -6.27619 9.75284 -7.82185 -29.7363 1.59028e-015 -7.95139e-015 -0 -74.379 -18.8987 -65.3213 1.19966 35.2102 -114.514 2.86859 9.95906 7.75689 13.7625 0.170191 -1.60681 45.5804 -48.6576 39.1611 -22.3521 3.91238 143.453 38.237 -2.92568 -39.4251 36.6581 -3.74044 -7.64566 -19.8706 40.1332 14.9354 -9.7939 54.5381 5.16154 77.2459 -59.1538 41.0609 
14.6855 94.1143 80.3684 -9.13047 -3.76174 -50.6546 -26.7231 -30.2591 0.566095 18.5744 38.2836 -13.3715 33.2997 30.9446 -11.4257 -34.1425 -34.1769 8.40619 4.01874 10.3058 -3.30164 2.08106 20.0072 -6.17565 10.5488 -8.59864 -33.2907 -1.59028e-015 2.38542e-015 -3.18055e-015 -72.0495 -17.3938 -65.8588 2.94177 34.2704 -115.227 2.9537 9.9827 8.85966 10.7503 0.269991 -0.847933 38.6335 -54.3539 34.8348 -26.6834 2.16897 140.252 38.7641 -3.58868 -40.6049 37.1679 -8.3033 -7.38441 -17.1757 41.0608 14.4628 -6.10785 55.5148 3.1352 82.6702 -60.0622 45.1769 
12.9264 93.5002 80.273 -8.75847 -4.59497 -47.4405 -28.1323 -27.3906 1.89999 17.4848 36.0948 -17.5422 26.6247 28.6074 -8.48837 -27.9668 -27.6944 7.72838 3.82716 10.2981 -3.08094 1.99188 20.2088 -5.86068 11.5337 -9.09812 -37.2748 -3.18055e-015 1.59028e-015 -0 -69.4317 -15.7007 -66.7505 4.85545 33.2535 -115.878 2.82672 10.0042 10.3229 7.63798 0.309411 -0.255407 28.4322 -59.0404 27.7039 -33.2491 2.71444 134.121 39.7879 -4.82749 -42.6562 37.0257 -13.0844 -7.31081 -14.3219 40.3445 13.6805 -2.84286 53.3228 1.21445 82.7491 -59.5785 45.8231 
11.2079 92.5756 80.1843 -8.07206 -5.45518 -44.4462 -29.712 -25.1 3.24734 17.2868 34.8463 -21.8096 21.0419 24.8617 -5.97387 -20.5318 -20.0802 6.97224 3.82215 10.2077 -2.71568 1.58164 20.2387 -5.17767 12.5016 -9.30063 -41.4447 0 0 -3.18055e-015 -66.5806 -14.1829 -67.81 6.68884 32.3745 -116.377 2.4927 10.0108 11.8935 4.13543 0.333843 0.646169 14.353 -60.9522 17.1028 -41.3261 7.16979 125.056 42.1446 -6.88464 -45.1166 36.0171 -17.4316 -7.12122 -11.129 37.9565 10.9499 -3.32482 49.1266 1.36906 76.2879 -58.3314 41.1297 
9.59923 91.3232 80.1995 -7.19823 -6.32456 -42.0652 -31.5873 -23.5898 4.1643 18.13 34.4631 -25.864 17.0805 20.9853 -4.26481 -14.1073 -13.5081 5.70524 4.09266 10.0233 -2.13834 0.881524 20.1159 -4.02897 13.0981 -9.30737 -45.4768 0 1.59028e-015 -0 -63.6097 -13.3225 -68.754 8.2318 31.7716 -116.765 2.033 9.99665 13.2991 0.0294463 0.317037 2.26744 -0.0629379 -55.3031 6.52778 -47.9383 14.7773 110.691 46.654 -9.56759 -46.4659 34.1913 -20.6209 -6.68071 -7.55547 34.1032 5.78081 -8.14219 44.2785 3.47029 65.516 -55.8429 33.0405 
8.15061 89.7411 80.4319 -6.26234 -7.17398 -40.7124 -33.8025 -23.0522 4.25048 19.7965 34.7276 -29.4396 14.5456 19.1448 -3.40004 -11.2514 -10.5407 4.38263 4.4359 9.80183 -1.28333 -0.0215984 19.8849 -2.34228 12.8929 -9.21696 -49.036 1.59028e-015 -1.59028e-015 6.36111e-015 -60.5184 -13.445 -69.0465 9.44051 31.1871 -117.253 1.52802 9.96495 14.3674 -4.36208 0.173451 4.53015 -7.36708 -36.3063 2.88465 -46.1511 20.3163 83.2772 53.2927 -11.4354 -44.2401 31.8296 -22.3958 -6.11607 -4.02833 29.7624 -0.97638 -15.1601 38.7923 5.97925 53.5321 -50.5186 26.0822 
6.79203 88.0005 80.8217 -5.37696 -7.96823 -40.7748 -36.0662 -23.5718 3.21355 21.501 35.4187 -32.2771 12.7972 21.2081 -3.20603 -13.8483 -12.7912 3.53979 4.59781 9.61467 -0.166175 -1.00908 19.5827 -0.110953 11.6251 -9.00739 -51.7622 3.18055e-015 3.18055e-015 3.18055e-015 -57.1173 -14.5857 -67.7681 10.4548 29.979 -118.227 0.949998 9.91634 15.1413 -8.29568 -0.111778 6.86544 -10.9055 -22.9228 0.71118 -34.7075 25.1883 58.8903 57.7344 -11.3774 -40.84 29.4865 -22.8838 -5.76244 -1.11577 26.3671 -7.41603 -20.8182 31.8979 7.05933 41.8146 -41.13 24.1747 
